<svg width="70" height="70" viewBox="0 0 70 70" fill="none" xmlns="http://www.w3.org/2000/svg">
<g filter="url(#filter0_d_51_18)">
<path d="M18.9584 29.1666C18.308 29.1666 17.6838 29.2658 17.0626 29.3562C17.2638 28.6796 17.4709 27.9912 17.8034 27.3729C18.1359 26.4746 18.6551 25.6958 19.1713 24.9112C19.603 24.0625 20.3642 23.4879 20.9242 22.7616C21.5105 22.0558 22.3096 21.5862 22.9426 21C23.5638 20.3875 24.3776 20.0812 25.0251 19.6496C25.7017 19.2616 26.2909 18.8329 26.9209 18.6287L28.493 17.9812L29.8755 17.4066L28.4609 11.7542L26.7196 12.1741C26.1626 12.3141 25.483 12.4775 24.7101 12.6729C23.9196 12.8187 23.0767 13.2183 22.1376 13.5829C21.2101 13.9971 20.1367 14.2771 19.1392 14.9421C18.1359 15.5779 16.978 16.1087 15.9571 16.9604C14.9684 17.8383 13.7755 18.5996 12.8946 19.7167C11.9321 20.7608 10.9813 21.8575 10.2434 23.1058C9.38881 24.2958 8.80839 25.6025 8.19589 26.8946C7.64172 28.1866 7.19547 29.5079 6.83089 30.7912C6.13964 33.3637 5.83047 35.8079 5.71089 37.8992C5.61172 39.9933 5.67006 41.7346 5.79256 42.9946C5.83631 43.5896 5.91797 44.1671 5.97631 44.5667L6.04922 45.0566L6.12506 45.0392C6.64382 47.4624 7.83803 49.6893 9.56953 51.4622C11.301 53.2351 13.4991 54.4815 15.9094 55.0574C18.3197 55.6332 20.8439 55.5149 23.1898 54.7162C25.5357 53.9174 27.6075 52.4708 29.1656 50.5437C30.7237 48.6166 31.7044 46.2878 31.9942 43.8267C32.284 41.3655 31.8712 38.8726 30.8034 36.6363C29.7356 34.4 28.0565 32.5117 25.9603 31.1898C23.8641 29.8679 21.4366 29.1665 18.9584 29.1666ZM51.0417 29.1666C50.3913 29.1666 49.7671 29.2658 49.1459 29.3562C49.3471 28.6796 49.5542 27.9912 49.8867 27.3729C50.2192 26.4746 50.7384 25.6958 51.2546 24.9112C51.6863 24.0625 52.4476 23.4879 53.0076 22.7616C53.5938 22.0558 54.393 21.5862 55.0259 21C55.6471 20.3875 56.4609 20.0812 57.1084 19.6496C57.7851 19.2616 58.3742 18.8329 59.0042 18.6287L60.5763 17.9812L61.9588 17.4066L60.5442 11.7542L58.803 12.1741C58.2459 12.3141 57.5663 12.4775 56.7934 12.6729C56.003 12.8187 55.1601 13.2183 54.2209 13.5829C53.2963 14 52.2201 14.2771 51.2226 14.945C50.2192 15.5808 49.0613 16.1116 48.0405 16.9633C47.0517 17.8412 45.8588 18.6025 44.978 19.7167C44.0155 20.7608 43.0646 21.8575 42.3267 23.1058C41.4721 24.2958 40.8917 25.6025 40.2792 26.8946C39.7251 28.1866 39.2788 29.5079 38.9142 30.7912C38.223 33.3637 37.9138 35.8079 37.7942 37.8992C37.6951 39.9933 37.7534 41.7346 37.8759 42.9946C37.9196 43.5896 38.0013 44.1671 38.0596 44.5667L38.1326 45.0566L38.2084 45.0392C38.7272 47.4624 39.9214 49.6893 41.6529 51.4622C43.3844 53.2351 45.5824 54.4815 47.9928 55.0574C50.4031 55.6332 52.9272 55.5149 55.2731 54.7162C57.619 53.9174 59.6908 52.4708 61.2489 50.5437C62.807 48.6166 63.7877 46.2878 64.0775 43.8267C64.3674 41.3655 63.9545 38.8726 62.8867 36.6363C61.8189 34.4 60.1398 32.5117 58.0436 31.1898C55.9475 29.8679 53.5199 29.1665 51.0417 29.1666Z" fill="#F8F8F8"/>
</g>
<defs>
<filter id="filter0_d_51_18" x="1.66064" y="11.7542" width="66.507" height="51.6625" filterUnits="userSpaceOnUse" color-interpolation-filters="sRGB">
<feFlood flood-opacity="0" result="BackgroundImageFix"/>
<feColorMatrix in="SourceAlpha" type="matrix" values="0 0 0 0 0 0 0 0 0 0 0 0 0 0 0 0 0 0 127 0" result="hardAlpha"/>
<feOffset dy="4"/>
<feGaussianBlur stdDeviation="2"/>
<feComposite in2="hardAlpha" operator="out"/>
<feColorMatrix type="matrix" values="0 0 0 0 0 0 0 0 0 0 0 0 0 0 0 0 0 0 0.25 0"/>
<feBlend mode="normal" in2="BackgroundImageFix" result="effect1_dropShadow_51_18"/>
<feBlend mode="normal" in="SourceGraphic" in2="effect1_dropShadow_51_18" result="shape"/>
</filter>
</defs>
</svg>
